<svg viewBox="-120 -120 240 240" xmlns="http://www.w3.org/2000/svg">
            <path d="M 77.0117372718856,0 C 82.91138070224771,20.22962795384765 89.86753565467686,27.764922565434915 81.87677372928373,47.271577352980025 C 73.8860118038906,66.77823214052513 65.51788300263402,70.4023188033817 45.048689570313094,78.02661915018044 C 24.579496137992162,85.65091949697917 19.448710430879252,83.09593370728753 4.7619642978877e-15,77.76877874017497 C -19.448710430879245,72.4416237730624 -18.3387276690868,67.8420635625397 -32.7461521532039,56.71799928173018 C -47.153576637321,45.59393500092065 -47.96702413228941,47.45202143736941 -57.62969793646839,33.27252161693687 C -67.29237174064737,19.093021796504328 -71.26070358621415,16.71486345863939 -71.39684736991981,8.743592060078442e-15 C -71.53299115362547,-16.714863458639375 -64.59645150188011,-13.794729768438511 -58.17427307129105,-33.58693221762066 C -51.75209464070198,-53.3791346668028 -60.25170191538633,-68.37734555669611 -45.70813364756357,-79.16880979672857 C -31.164565379740814,-89.96027403676102 -20.28680577184941,-81.19941575599006 -1.4099258638824561e-14,-76.75278917775049 C 20.28680577184938,-72.30616259951091 20.869539437875183,-72.15876716260524 35.439089439834,-61.382303483770265 C 50.008639441792816,-50.605839804935286 47.88503804982236,-48.992510333353145 58.27820000783526,-33.64693446241058 C 68.67136196584816,-18.30135859146801 71.11209384152347,-20.22962795384765 77.0117372718856,0 Z" fill="#cd93ff" />
        </svg>